<mxfile host="app.diagrams.net" agent="Mozilla/5.0 (Windows NT 10.0; Win64; x64) AppleWebKit/537.36 (KHTML, like Gecko) Chrome/129.0.0.0 Safari/537.36" version="24.7.17">
  <diagram name="Page-1" id="9NJbW2qG5AQis5DbMxxJ">
    <mxGraphModel dx="1015" dy="814" grid="1" gridSize="10" guides="1" tooltips="1" connect="1" arrows="1" fold="1" page="1" pageScale="1" pageWidth="827" pageHeight="1169" math="0" shadow="0">
      <root>
        <mxCell id="0" />
        <mxCell id="1" parent="0" />
        <mxCell id="QZBLLaXXZIAT3Zc7Mf0y-6" value="" style="edgeStyle=none;curved=1;rounded=0;orthogonalLoop=1;jettySize=auto;html=1;fontSize=12;startSize=8;endSize=8;entryX=0.5;entryY=0;entryDx=0;entryDy=0;" edge="1" parent="1" source="QZBLLaXXZIAT3Zc7Mf0y-1" target="QZBLLaXXZIAT3Zc7Mf0y-12">
          <mxGeometry relative="1" as="geometry">
            <mxPoint x="580" y="130" as="targetPoint" />
          </mxGeometry>
        </mxCell>
        <mxCell id="QZBLLaXXZIAT3Zc7Mf0y-1" value="example.com" style="rounded=0;whiteSpace=wrap;html=1;" vertex="1" parent="1">
          <mxGeometry x="340" y="20" width="120" height="60" as="geometry" />
        </mxCell>
        <mxCell id="QZBLLaXXZIAT3Zc7Mf0y-19" value="" style="edgeStyle=none;curved=1;rounded=0;orthogonalLoop=1;jettySize=auto;html=1;fontSize=12;startSize=8;endSize=8;" edge="1" parent="1" source="QZBLLaXXZIAT3Zc7Mf0y-2" target="QZBLLaXXZIAT3Zc7Mf0y-15">
          <mxGeometry relative="1" as="geometry">
            <Array as="points">
              <mxPoint x="330" y="450" />
            </Array>
          </mxGeometry>
        </mxCell>
        <mxCell id="QZBLLaXXZIAT3Zc7Mf0y-2" value="Web 1" style="ellipse;whiteSpace=wrap;html=1;aspect=fixed;" vertex="1" parent="1">
          <mxGeometry x="295" y="330" width="80" height="80" as="geometry" />
        </mxCell>
        <mxCell id="QZBLLaXXZIAT3Zc7Mf0y-18" value="" style="edgeStyle=none;curved=1;rounded=0;orthogonalLoop=1;jettySize=auto;html=1;fontSize=12;startSize=8;endSize=8;entryX=0.75;entryY=0;entryDx=0;entryDy=0;" edge="1" parent="1" source="QZBLLaXXZIAT3Zc7Mf0y-3" target="QZBLLaXXZIAT3Zc7Mf0y-15">
          <mxGeometry relative="1" as="geometry" />
        </mxCell>
        <mxCell id="QZBLLaXXZIAT3Zc7Mf0y-3" value="Web 2" style="ellipse;whiteSpace=wrap;html=1;aspect=fixed;" vertex="1" parent="1">
          <mxGeometry x="415" y="330" width="80" height="80" as="geometry" />
        </mxCell>
        <mxCell id="QZBLLaXXZIAT3Zc7Mf0y-4" value="Horizontal auto-scale, min and max values based on expected load and infra budget." style="text;strokeColor=none;fillColor=none;html=1;align=center;verticalAlign=middle;whiteSpace=wrap;rounded=0;fontSize=16;" vertex="1" parent="1">
          <mxGeometry x="520" y="326.25" width="240" height="83.75" as="geometry" />
        </mxCell>
        <mxCell id="QZBLLaXXZIAT3Zc7Mf0y-9" value="" style="edgeStyle=none;curved=1;rounded=0;orthogonalLoop=1;jettySize=auto;html=1;fontSize=12;startSize=8;endSize=8;exitX=0.75;exitY=1;exitDx=0;exitDy=0;" edge="1" parent="1" source="QZBLLaXXZIAT3Zc7Mf0y-8" target="QZBLLaXXZIAT3Zc7Mf0y-3">
          <mxGeometry relative="1" as="geometry" />
        </mxCell>
        <mxCell id="QZBLLaXXZIAT3Zc7Mf0y-10" style="edgeStyle=none;curved=1;rounded=0;orthogonalLoop=1;jettySize=auto;html=1;exitX=0.25;exitY=1;exitDx=0;exitDy=0;fontSize=12;startSize=8;endSize=8;" edge="1" parent="1" source="QZBLLaXXZIAT3Zc7Mf0y-8" target="QZBLLaXXZIAT3Zc7Mf0y-2">
          <mxGeometry relative="1" as="geometry" />
        </mxCell>
        <mxCell id="QZBLLaXXZIAT3Zc7Mf0y-8" value="Load Balancer" style="rounded=0;whiteSpace=wrap;html=1;" vertex="1" parent="1">
          <mxGeometry x="340" y="210" width="120" height="60" as="geometry" />
        </mxCell>
        <mxCell id="QZBLLaXXZIAT3Zc7Mf0y-13" value="" style="edgeStyle=none;curved=1;rounded=0;orthogonalLoop=1;jettySize=auto;html=1;fontSize=12;startSize=8;endSize=8;entryX=0.5;entryY=0;entryDx=0;entryDy=0;" edge="1" parent="1" source="QZBLLaXXZIAT3Zc7Mf0y-12" target="QZBLLaXXZIAT3Zc7Mf0y-8">
          <mxGeometry relative="1" as="geometry">
            <mxPoint x="415" y="210" as="targetPoint" />
          </mxGeometry>
        </mxCell>
        <mxCell id="QZBLLaXXZIAT3Zc7Mf0y-12" value="CloudFlare" style="rounded=0;whiteSpace=wrap;html=1;" vertex="1" parent="1">
          <mxGeometry x="340" y="120" width="120" height="60" as="geometry" />
        </mxCell>
        <mxCell id="QZBLLaXXZIAT3Zc7Mf0y-25" style="edgeStyle=none;curved=1;rounded=0;orthogonalLoop=1;jettySize=auto;html=1;exitX=0.25;exitY=1;exitDx=0;exitDy=0;fontSize=12;startSize=8;endSize=8;" edge="1" parent="1" source="QZBLLaXXZIAT3Zc7Mf0y-15" target="QZBLLaXXZIAT3Zc7Mf0y-20">
          <mxGeometry relative="1" as="geometry" />
        </mxCell>
        <mxCell id="QZBLLaXXZIAT3Zc7Mf0y-26" style="edgeStyle=none;curved=1;rounded=0;orthogonalLoop=1;jettySize=auto;html=1;exitX=0.75;exitY=1;exitDx=0;exitDy=0;fontSize=12;startSize=8;endSize=8;" edge="1" parent="1" source="QZBLLaXXZIAT3Zc7Mf0y-15" target="QZBLLaXXZIAT3Zc7Mf0y-22">
          <mxGeometry relative="1" as="geometry" />
        </mxCell>
        <mxCell id="QZBLLaXXZIAT3Zc7Mf0y-15" value="api.example.com" style="rounded=0;whiteSpace=wrap;html=1;" vertex="1" parent="1">
          <mxGeometry x="275" y="450" width="250" height="60" as="geometry" />
        </mxCell>
        <mxCell id="QZBLLaXXZIAT3Zc7Mf0y-20" value="API 1" style="ellipse;whiteSpace=wrap;html=1;aspect=fixed;" vertex="1" parent="1">
          <mxGeometry x="290" y="570" width="80" height="80" as="geometry" />
        </mxCell>
        <mxCell id="QZBLLaXXZIAT3Zc7Mf0y-22" value="API 2" style="ellipse;whiteSpace=wrap;html=1;aspect=fixed;" vertex="1" parent="1">
          <mxGeometry x="430" y="570" width="80" height="80" as="geometry" />
        </mxCell>
        <mxCell id="QZBLLaXXZIAT3Zc7Mf0y-24" value="Horizontal auto-scale, min and max values based on expected load and infra budget." style="text;strokeColor=none;fillColor=none;html=1;align=center;verticalAlign=middle;whiteSpace=wrap;rounded=0;fontSize=16;" vertex="1" parent="1">
          <mxGeometry x="520" y="563.13" width="240" height="93.75" as="geometry" />
        </mxCell>
        <mxCell id="QZBLLaXXZIAT3Zc7Mf0y-27" value="DB 1" style="shape=cylinder3;whiteSpace=wrap;html=1;boundedLbl=1;backgroundOutline=1;size=15;" vertex="1" parent="1">
          <mxGeometry x="370" y="750" width="60" height="80" as="geometry" />
        </mxCell>
        <mxCell id="QZBLLaXXZIAT3Zc7Mf0y-30" value="" style="endArrow=classic;startArrow=classic;html=1;rounded=0;fontSize=12;startSize=8;endSize=8;curved=1;entryX=0.5;entryY=1;entryDx=0;entryDy=0;exitX=0.145;exitY=0;exitDx=0;exitDy=4.35;exitPerimeter=0;" edge="1" parent="1" source="QZBLLaXXZIAT3Zc7Mf0y-27" target="QZBLLaXXZIAT3Zc7Mf0y-20">
          <mxGeometry width="50" height="50" relative="1" as="geometry">
            <mxPoint x="330" y="720" as="sourcePoint" />
            <mxPoint x="380" y="670" as="targetPoint" />
          </mxGeometry>
        </mxCell>
        <mxCell id="QZBLLaXXZIAT3Zc7Mf0y-32" value="" style="endArrow=classic;startArrow=classic;html=1;rounded=0;fontSize=12;startSize=8;endSize=8;curved=1;entryX=0.5;entryY=1;entryDx=0;entryDy=0;exitX=0.855;exitY=0;exitDx=0;exitDy=4.35;exitPerimeter=0;" edge="1" parent="1" source="QZBLLaXXZIAT3Zc7Mf0y-27">
          <mxGeometry width="50" height="50" relative="1" as="geometry">
            <mxPoint x="520" y="754" as="sourcePoint" />
            <mxPoint x="471" y="650" as="targetPoint" />
          </mxGeometry>
        </mxCell>
        <mxCell id="QZBLLaXXZIAT3Zc7Mf0y-33" value="Scaled to suit data needs, inside VPC with API instances, could be vertically or horizontally scaled." style="text;html=1;align=center;verticalAlign=middle;whiteSpace=wrap;rounded=0;fontSize=16;" vertex="1" parent="1">
          <mxGeometry x="520" y="740" width="225" height="100" as="geometry" />
        </mxCell>
      </root>
    </mxGraphModel>
  </diagram>
</mxfile>
